<?xml version="1.0" encoding="UTF-8"?>
<svg version="1.1" xmlns="http://www.w3.org/2000/svg" width="121" height="112">
<path d="M0 0 C0.99 0 1.98 0 3 0 C3.08564209 0.57967529 3.17128418 1.15935059 3.25952148 1.7565918 C3.65087717 4.40042275 4.04417081 7.04396196 4.4375 9.6875 C4.57220703 10.59951172 4.70691406 11.51152344 4.84570312 12.45117188 C4.97783203 13.33740234 5.10996094 14.22363281 5.24609375 15.13671875 C5.36654053 15.94842529 5.4869873 16.76013184 5.61108398 17.59643555 C5.88002989 19.25856513 6.18891839 20.9145427 6.52954102 22.56347656 C7.33402923 26.72994901 7.39720862 30.97431205 7.60546875 35.20507812 C7.79039471 38.60070126 8.15063935 41.71530441 9 45 C8.72949547 47.00946222 8.40632091 49.01354224 8 51 C11.06805814 51.88716709 13.8548618 52.14894958 17.04394531 52.20532227 C18.04468079 52.22526749 19.04541626 52.24521271 20.07647705 52.26576233 C21.14952087 52.28247482 22.2225647 52.29918732 23.328125 52.31640625 C24.43226746 52.33718735 25.53640991 52.35796844 26.67401123 52.37937927 C30.19927783 52.44473646 33.72461859 52.50369564 37.25 52.5625 C39.64063265 52.60569836 42.03125782 52.64931307 44.421875 52.69335938 C50.28117173 52.80040372 56.14054214 52.90219585 62 53 C62 54.32 62 55.64 62 57 C22.07 57 -17.86 57 -59 57 C-59 55.68 -59 54.36 -59 53 C-58.38247864 52.98969254 -57.76495728 52.97938507 -57.12872314 52.96876526 C-50.70484982 52.86063254 -44.28111484 52.74603989 -37.85742188 52.62768555 C-35.45966485 52.58435845 -33.0618774 52.54268178 -30.6640625 52.50268555 C-27.21865674 52.44492937 -23.77340375 52.38124994 -20.328125 52.31640625 C-18.71855927 52.29133751 -18.71855927 52.29133751 -17.07647705 52.26576233 C-16.07574158 52.24581711 -15.0750061 52.22587189 -14.04394531 52.20532227 C-13.16458313 52.18977798 -12.28522095 52.1742337 -11.37921143 52.15821838 C-9.13042229 52.00867313 -7.16009502 51.62461828 -5 51 C-5.2784375 49.081875 -5.2784375 49.081875 -5.5625 47.125 C-6.125 43.25 -6.125 43.25 -5 41 C-4.86436225 38.77252674 -4.76772147 36.54265677 -4.6875 34.3125 C-4.20759378 24.09133952 -2.25196682 14.12058041 -0.35131836 4.08447266 C0.05539889 2.0236143 0.05539889 2.0236143 0 0 Z " fill="#37C4C9" transform="translate(59,0)"/>
<path d="M0 0 C39.93 0 79.86 0 121 0 C121 1.32 121 2.64 121 4 C81.07 4 41.14 4 0 4 C0 2.68 0 1.36 0 0 Z " fill="#37C4C9" transform="translate(0,108)"/>
<path d="M0 0 C4.70588235 0.70588235 4.70588235 0.70588235 6 2 C6.07325168 4.86267567 6.09238205 7.700719 6.0625 10.5625 C6.05798828 11.36880859 6.05347656 12.17511719 6.04882812 13.00585938 C6.03700518 15.00393756 6.01906914 17.00197783 6 19 C3.69 19 1.38 19 -1 19 C-1.02683987 16.02077407 -1.04676037 13.04178705 -1.0625 10.0625 C-1.07087891 9.21236328 -1.07925781 8.36222656 -1.08789062 7.48632812 C-1.09111328 6.67744141 -1.09433594 5.86855469 -1.09765625 5.03515625 C-1.10289307 4.2862915 -1.10812988 3.53742676 -1.11352539 2.76586914 C-1 1 -1 1 0 0 Z " fill="#37C4C9" transform="translate(90,86)"/>
<path d="M0 0 C4.70588235 0.70588235 4.70588235 0.70588235 6 2 C6.07325168 4.86267567 6.09238205 7.700719 6.0625 10.5625 C6.05798828 11.36880859 6.05347656 12.17511719 6.04882812 13.00585938 C6.03700518 15.00393756 6.01906914 17.00197783 6 19 C3.69 19 1.38 19 -1 19 C-1.02683987 16.02077407 -1.04676037 13.04178705 -1.0625 10.0625 C-1.07087891 9.21236328 -1.07925781 8.36222656 -1.08789062 7.48632812 C-1.09111328 6.67744141 -1.09433594 5.86855469 -1.09765625 5.03515625 C-1.10289307 4.2862915 -1.10812988 3.53742676 -1.11352539 2.76586914 C-1 1 -1 1 0 0 Z " fill="#37C4C9" transform="translate(77,86)"/>
<path d="M0 0 C1.65 0.33 3.3 0.66 5 1 C5 6.94 5 12.88 5 19 C2.69 19 0.38 19 -2 19 C-2.05380578 16.20807795 -2.09357669 13.4171859 -2.125 10.625 C-2.14175781 9.8309375 -2.15851562 9.036875 -2.17578125 8.21875 C-2.19335473 6.14507985 -2.10335168 4.07116759 -2 2 C-1.34 1.34 -0.68 0.68 0 0 Z " fill="#37C4C9" transform="translate(40,86)"/>
<path d="M0 0 C1.65 0.33 3.3 0.66 5 1 C5 6.94 5 12.88 5 19 C2.69 19 0.38 19 -2 19 C-2.05380578 16.20807795 -2.09357669 13.4171859 -2.125 10.625 C-2.14175781 9.8309375 -2.15851562 9.036875 -2.17578125 8.21875 C-2.19335473 6.14507985 -2.10335168 4.07116759 -2 2 C-1.34 1.34 -0.68 0.68 0 0 Z " fill="#37C4C9" transform="translate(27,86)"/>
<path d="M0 0 C4.70588235 0.70588235 4.70588235 0.70588235 6 2 C6.07325168 4.86267567 6.09238205 7.700719 6.0625 10.5625 C6.05798828 11.36880859 6.05347656 12.17511719 6.04882812 13.00585938 C6.03700518 15.00393756 6.01906914 17.00197783 6 19 C3.69 19 1.38 19 -1 19 C-1.02683987 16.02077407 -1.04676037 13.04178705 -1.0625 10.0625 C-1.07087891 9.21236328 -1.07925781 8.36222656 -1.08789062 7.48632812 C-1.09111328 6.67744141 -1.09433594 5.86855469 -1.09765625 5.03515625 C-1.10289307 4.2862915 -1.10812988 3.53742676 -1.11352539 2.76586914 C-1 1 -1 1 0 0 Z " fill="#37C4C9" transform="translate(1,86)"/>
<path d="M0 0 C2.5 0.3125 2.5 0.3125 5 1 C6.52491129 4.04982258 6.14361434 7.22122539 6.125 10.5625 C6.12886719 11.26052734 6.13273437 11.95855469 6.13671875 12.67773438 C6.12663994 17.87336006 6.12663994 17.87336006 5 19 C3.00041636 19.04080783 0.99954746 19.04254356 -1 19 C-1.02683987 16.02077407 -1.04676037 13.04178705 -1.0625 10.0625 C-1.07087891 9.21236328 -1.07925781 8.36222656 -1.08789062 7.48632812 C-1.09111328 6.67744141 -1.09433594 5.86855469 -1.09765625 5.03515625 C-1.10289307 4.2862915 -1.10812988 3.53742676 -1.11352539 2.76586914 C-1 1 -1 1 0 0 Z " fill="#37C4C9" transform="translate(103,86)"/>
<path d="M0 0 C1.65 0.33 3.3 0.66 5 1 C5.33 6.94 5.66 12.88 6 19 C3.69 19 1.38 19 -1 19 C-1.02683987 16.02077407 -1.04676037 13.04178705 -1.0625 10.0625 C-1.07087891 9.21236328 -1.07925781 8.36222656 -1.08789062 7.48632812 C-1.09111328 6.67744141 -1.09433594 5.86855469 -1.09765625 5.03515625 C-1.10289307 4.2862915 -1.10812988 3.53742676 -1.11352539 2.76586914 C-1 1 -1 1 0 0 Z " fill="#37C4C9" transform="translate(14,86)"/>
<path d="M0 0 C1.65 0.33 3.3 0.66 5 1 C5 6.94 5 12.88 5 19 C3.02 19 1.04 19 -1 19 C-1.02683987 16.02077407 -1.04676037 13.04178705 -1.0625 10.0625 C-1.07087891 9.21236328 -1.07925781 8.36222656 -1.08789062 7.48632812 C-1.09111328 6.67744141 -1.09433594 5.86855469 -1.09765625 5.03515625 C-1.10289307 4.2862915 -1.10812988 3.53742676 -1.11352539 2.76586914 C-1 1 -1 1 0 0 Z " fill="#37C4C9" transform="translate(116,86)"/>
<path d="M0 0 C2.5 0.125 2.5 0.125 3.5 1.125 C3.57313567 3.65549402 3.59247527 6.15804837 3.5625 8.6875 C3.55798828 9.39841797 3.55347656 10.10933594 3.54882812 10.84179688 C3.53700864 12.60290013 3.51907263 14.36396036 3.5 16.125 C1.19 16.125 -1.12 16.125 -3.5 16.125 C-3.52685095 13.64576199 -3.54676547 11.1668116 -3.5625 8.6875 C-3.57506836 7.62692383 -3.57506836 7.62692383 -3.58789062 6.54492188 C-3.59653588 4.73806441 -3.55220011 2.93112397 -3.5 1.125 C-2.5 0.125 -2.5 0.125 0 0 Z " fill="#37C4C9" transform="translate(92.5,64.875)"/>
<path d="M0 0 C2.5 0.125 2.5 0.125 3.5 1.125 C3.57313567 3.65549402 3.59247527 6.15804837 3.5625 8.6875 C3.55798828 9.39841797 3.55347656 10.10933594 3.54882812 10.84179688 C3.53700864 12.60290013 3.51907263 14.36396036 3.5 16.125 C1.19 16.125 -1.12 16.125 -3.5 16.125 C-3.52685095 13.64576199 -3.54676547 11.1668116 -3.5625 8.6875 C-3.57506836 7.62692383 -3.57506836 7.62692383 -3.58789062 6.54492188 C-3.59653588 4.73806441 -3.55220011 2.93112397 -3.5 1.125 C-2.5 0.125 -2.5 0.125 0 0 Z " fill="#37C4C9" transform="translate(79.5,64.875)"/>
<path d="M0 0 C2.5 0.125 2.5 0.125 3.5 1.125 C3.57313567 3.65549402 3.59247527 6.15804837 3.5625 8.6875 C3.55798828 9.39841797 3.55347656 10.10933594 3.54882812 10.84179688 C3.53700864 12.60290013 3.51907263 14.36396036 3.5 16.125 C1.19 16.125 -1.12 16.125 -3.5 16.125 C-3.52685095 13.64576199 -3.54676547 11.1668116 -3.5625 8.6875 C-3.57506836 7.62692383 -3.57506836 7.62692383 -3.58789062 6.54492188 C-3.59653588 4.73806441 -3.55220011 2.93112397 -3.5 1.125 C-2.5 0.125 -2.5 0.125 0 0 Z " fill="#37C4C9" transform="translate(41.5,64.875)"/>
<path d="M0 0 C2.5 0.125 2.5 0.125 3.5 1.125 C3.57313567 3.65549402 3.59247527 6.15804837 3.5625 8.6875 C3.55798828 9.39841797 3.55347656 10.10933594 3.54882812 10.84179688 C3.53700864 12.60290013 3.51907263 14.36396036 3.5 16.125 C1.19 16.125 -1.12 16.125 -3.5 16.125 C-3.52685095 13.64576199 -3.54676547 11.1668116 -3.5625 8.6875 C-3.57506836 7.62692383 -3.57506836 7.62692383 -3.58789062 6.54492188 C-3.59653588 4.73806441 -3.55220011 2.93112397 -3.5 1.125 C-2.5 0.125 -2.5 0.125 0 0 Z " fill="#37C4C9" transform="translate(3.5,64.875)"/>
<path d="M0 0 C1.66611905 -0.042721 3.33382885 -0.04063832 5 0 C6 1 6 1 6.09765625 4.37890625 C6.09098369 5.77347077 6.07902532 7.16801743 6.0625 8.5625 C6.05798828 9.27341797 6.05347656 9.98433594 6.04882812 10.71679688 C6.03700864 12.47790013 6.01907263 14.23896036 6 16 C3.69 16 1.38 16 -1 16 C-1.02692484 13.70839681 -1.04636124 11.41670454 -1.0625 9.125 C-1.07410156 7.84882812 -1.08570312 6.57265625 -1.09765625 5.2578125 C-1 2 -1 2 0 0 Z " fill="#37C4C9" transform="translate(26,65)"/>
<path d="M0 0 C2.5 0.3125 2.5 0.3125 5 1 C6.37252731 3.74505463 6.13229255 6.00327412 6.125 9.0625 C6.12757812 10.14660156 6.13015625 11.23070313 6.1328125 12.34765625 C6 15 6 15 5 16 C3.00041636 16.04080783 0.99954746 16.04254356 -1 16 C-1.02685095 13.52076199 -1.04676547 11.0418116 -1.0625 8.5625 C-1.07506836 7.50192383 -1.07506836 7.50192383 -1.08789062 6.41992188 C-1.09653588 4.61306441 -1.05220011 2.80612397 -1 1 C-0.67 0.67 -0.34 0.34 0 0 Z " fill="#37C4C9" transform="translate(103,65)"/>
<path d="M0 0 C1.65 0 3.3 0 5 0 C5 5.28 5 10.56 5 16 C3.02 16 1.04 16 -1 16 C-1.02685095 13.52076199 -1.04676547 11.0418116 -1.0625 8.5625 C-1.07506836 7.50192383 -1.07506836 7.50192383 -1.08789062 6.41992188 C-1.09653588 4.61306441 -1.05220011 2.80612397 -1 1 C-0.67 0.67 -0.34 0.34 0 0 Z " fill="#37C4C9" transform="translate(14,65)"/>
<path d="M0 0 C1.65 0.33 3.3 0.66 5 1 C5 5.95 5 10.9 5 16 C3.02 16 1.04 16 -1 16 C-1.02685095 13.52076199 -1.04676547 11.0418116 -1.0625 8.5625 C-1.07506836 7.50192383 -1.07506836 7.50192383 -1.08789062 6.41992188 C-1.09653588 4.61306441 -1.05220011 2.80612397 -1 1 C-0.67 0.67 -0.34 0.34 0 0 Z " fill="#37C4C9" transform="translate(116,65)"/>
<path d="M0 0 C4.43357093 0.79170909 5.84171883 2.02850194 8.5 5.625 C9.3125 8.9375 9.3125 8.9375 9.5 11.625 C8.51 11.625 7.52 11.625 6.5 11.625 C6.108125 10.655625 5.71625 9.68625 5.3125 8.6875 C3.8221241 5.45907993 3.8221241 5.45907993 1 4.625 C-1.75423759 4.39387492 -1.75423759 4.39387492 -4.5 6.625 C-5.70450304 9.17683404 -5.70450304 9.17683404 -6.5 11.625 C-7.49 11.625 -8.48 11.625 -9.5 11.625 C-9.23409107 7.81363862 -8.67089833 5.85621539 -6.375 2.75 C-3.5 0.625 -3.5 0.625 0 0 Z " fill="#37C4C9" transform="translate(60.5,84.375)"/>
<path d="M0 0 C3.47466974 0.79283139 4.9459957 2.62962184 6.96875 5.44921875 C7.78125 8.76171875 7.78125 8.76171875 7.96875 11.44921875 C6.64875 11.44921875 5.32875 11.44921875 3.96875 11.44921875 C3.30875 9.46921875 2.64875 7.48921875 1.96875 5.44921875 C-0.88203091 4.68205024 -0.88203091 4.68205024 -4.03125 4.44921875 C-6.32908199 5.95469488 -6.89855065 7.02699356 -7.71875 9.63671875 C-7.821875 10.23484375 -7.925 10.83296875 -8.03125 11.44921875 C-9.02125 11.44921875 -10.01125 11.44921875 -11.03125 11.44921875 C-10.74985476 7.79108058 -10.46781214 5.13025569 -8.46875 2.01171875 C-5.62836924 0.19096185 -3.36727715 -0.18218477 0 0 Z " fill="#37C4C9" transform="translate(62.03125,63.55078125)"/>
</svg>
